<svg width="427" height="51" viewBox="0 0 427 51" fill="none" xmlns="http://www.w3.org/2000/svg">
<path d="M407.706 50.1005L412.971 37.1578L402.715 13.0275H407.048L415.055 32.3866L422.678 13.0275H426.955L417.413 36.6643L412.038 50.1005H407.706Z" fill="currentColor"/>
<path d="M392.315 4.3076H396.263V38.3095H392.315V4.3076ZM387.763 13.0274H402.241V16.5373H387.763V13.0274Z" fill="currentColor"/>
<path d="M383.289 13.0275V38.3095H379.34V13.0275H383.289ZM381.314 0.523544C382.046 0.523544 382.631 0.761191 383.069 1.23648C383.545 1.67522 383.782 2.2602 383.782 2.99142C383.782 3.72265 383.545 4.32591 383.069 4.8012C382.631 5.2765 382.046 5.51414 381.314 5.51414C380.583 5.51414 379.98 5.2765 379.505 4.8012C379.029 4.32591 378.792 3.72265 378.792 2.99142C378.792 2.2602 379.029 1.67522 379.505 1.23648C379.98 0.761191 380.583 0.523544 381.314 0.523544Z" fill="currentColor"/>
<path d="M369.992 23.4474C369.992 21.4365 369.425 19.7913 368.292 18.5116C367.158 17.232 365.678 16.5922 363.85 16.5922C362.46 16.5922 361.217 16.9212 360.12 17.5793C359.023 18.2009 358.164 19.0418 357.543 20.1021C356.921 21.1258 356.61 22.2409 356.61 23.4474V38.3095H352.662V13.0275H356.61V17.4696L356.227 17.36C357.067 16.0803 358.201 15.0383 359.627 14.234C361.089 13.4296 362.497 13.0275 363.85 13.0275C365.787 13.0275 367.524 13.4662 369.06 14.3437C370.595 15.1846 371.783 16.3728 372.624 17.9084C373.502 19.444 373.94 21.1806 373.94 23.1183V38.3095H369.992V23.4474Z" fill="currentColor"/>
<path d="M329.618 27.8896C329.618 29.9736 330.184 31.7102 331.318 33.0995C332.488 34.4889 333.968 35.1835 335.76 35.1835C337.149 35.1835 338.392 34.9093 339.489 34.3609C340.586 33.7759 341.427 32.9716 342.012 31.9479C342.633 30.9242 342.944 29.7542 342.944 28.438V13.0275H346.948V38.3095H342.944V34.4157L343.328 34.5254C342.524 35.7685 341.409 36.7922 339.983 37.5966C338.557 38.3644 337.149 38.7482 335.76 38.7482C333.822 38.7482 332.086 38.2912 330.55 37.3772C329.014 36.4632 327.808 35.2201 326.93 33.648C326.053 32.0393 325.614 30.2661 325.614 28.3283V13.0275H329.618V27.8896Z" fill="currentColor"/>
<path d="M316.572 22.8441C316.572 21.0161 316.042 19.5171 314.982 18.3471C313.958 17.1772 312.623 16.5922 310.978 16.5922C309.698 16.5922 308.565 16.8481 307.578 17.36C306.591 17.8353 305.823 18.5116 305.275 19.3891C304.726 20.23 304.452 21.2172 304.452 22.3506V38.3095H300.503V22.8441C300.503 21.0161 299.991 19.5171 298.968 18.3471C297.944 17.1772 296.628 16.5922 295.019 16.5922C293.776 16.5922 292.643 16.9212 291.619 17.5793C290.632 18.2009 289.846 19.0418 289.261 20.1021C288.712 21.1258 288.438 22.2409 288.438 23.4474V38.3095H284.49V13.0275H288.438V17.4696L288.054 17.36C288.785 16.0803 289.791 15.0383 291.071 14.234C292.387 13.4296 293.703 13.0275 295.019 13.0275C296.628 13.0275 298.145 13.4662 299.571 14.3437C301.033 15.2211 302.112 16.3545 302.807 17.7439C303.648 16.3545 304.817 15.2211 306.317 14.3437C307.816 13.4662 309.369 13.0275 310.978 13.0275C312.806 13.0275 314.433 13.4296 315.859 14.234C317.285 15.0383 318.4 16.1535 319.204 17.5793C320.008 18.9686 320.41 20.5773 320.41 22.4054V38.3095H316.572V22.8441Z" fill="currentColor"/>
<path d="M275.653 22.8441C275.653 21.0161 275.123 19.5171 274.062 18.3471C273.039 17.1772 271.704 16.5922 270.059 16.5922C268.779 16.5922 267.646 16.8481 266.659 17.36C265.672 17.8353 264.904 18.5116 264.355 19.3891C263.807 20.23 263.533 21.2172 263.533 22.3506V38.3095H259.584V22.8441C259.584 21.0161 259.072 19.5171 258.049 18.3471C257.025 17.1772 255.709 16.5922 254.1 16.5922C252.857 16.5922 251.723 16.9212 250.7 17.5793C249.713 18.2009 248.927 19.0418 248.342 20.1021C247.793 21.1258 247.519 22.2409 247.519 23.4474V38.3095H243.57V13.0275H247.519V17.4696L247.135 17.36C247.866 16.0803 248.872 15.0383 250.151 14.234C251.468 13.4296 252.784 13.0275 254.1 13.0275C255.709 13.0275 257.226 13.4662 258.652 14.3437C260.114 15.2211 261.193 16.3545 261.887 17.7439C262.728 16.3545 263.898 15.2211 265.397 14.3437C266.896 13.4662 268.45 13.0275 270.059 13.0275C271.887 13.0275 273.514 13.4296 274.94 14.234C276.366 15.0383 277.481 16.1535 278.285 17.5793C279.089 18.9686 279.491 20.5773 279.491 22.4054V38.3095H275.653V22.8441Z" fill="currentColor"/>
<path d="M225.72 34.4157C227.146 34.4157 228.389 34.0684 229.45 33.3737C230.546 32.6425 231.406 31.6371 232.027 30.3574C232.649 29.0412 232.959 27.5239 232.959 25.8056C232.959 24.1238 232.649 22.643 232.027 21.3634C231.406 20.0472 230.546 19.0418 229.45 18.3471C228.389 17.6159 227.146 17.2503 225.72 17.2503C224.294 17.2503 223.033 17.6159 221.936 18.3471C220.839 19.0418 219.98 20.0472 219.359 21.3634C218.774 22.643 218.481 24.1238 218.481 25.8056C218.481 27.5239 218.774 29.0412 219.359 30.3574C219.98 31.6371 220.839 32.6425 221.936 33.3737C223.033 34.0684 224.294 34.4157 225.72 34.4157ZM225.665 12.7532C228.115 12.7532 230.272 13.3199 232.137 14.4533C234.001 15.5502 235.464 17.0857 236.524 19.06C237.584 21.0343 238.115 23.2828 238.115 25.8056C238.115 28.3283 237.584 30.5951 236.524 32.6059C235.464 34.5802 234.001 36.1341 232.137 37.2675C230.272 38.3643 228.115 38.9127 225.665 38.9127C223.252 38.9127 221.113 38.3643 219.249 37.2675C217.384 36.1341 215.922 34.5802 214.861 32.6059C213.801 30.5951 213.271 28.3283 213.271 25.8056C213.271 23.2828 213.801 21.0343 214.861 19.06C215.922 17.0857 217.384 15.5502 219.249 14.4533C221.113 13.3199 223.252 12.7532 225.665 12.7532Z" fill="currentColor"/>
<path d="M201.549 33.9221C202.609 33.9221 203.706 33.6662 204.84 33.1544C205.973 32.6425 206.924 31.9844 207.691 31.1801L211.311 34.6899C210.178 35.8965 208.697 36.9019 206.869 37.7062C205.077 38.474 203.377 38.8579 201.768 38.8579C199.246 38.8579 196.979 38.3095 194.968 37.2127C192.994 36.0793 191.44 34.5254 190.307 32.5511C189.173 30.5402 188.606 28.2917 188.606 25.8056C188.606 23.2828 189.173 21.0343 190.307 19.06C191.44 17.0857 192.994 15.5502 194.968 14.4533C196.979 13.3199 199.246 12.7532 201.768 12.7532C203.45 12.7532 205.169 13.1371 206.924 13.9049C208.679 14.6727 210.141 15.6781 211.311 16.9212L207.691 20.4311C206.924 19.6267 205.973 18.9686 204.84 18.4568C203.706 17.9449 202.609 17.689 201.549 17.689C200.05 17.689 198.716 18.0363 197.546 18.731C196.376 19.3891 195.462 20.3397 194.804 21.5828C194.145 22.7893 193.816 24.1969 193.816 25.8056C193.816 27.4143 194.145 28.8401 194.804 30.0832C195.462 31.2897 196.376 32.2403 197.546 32.935C198.716 33.593 200.05 33.9221 201.549 33.9221Z" fill="currentColor"/>
<path d="M180.246 33.0447C181.16 33.0447 181.91 33.3372 182.495 33.9221C183.08 34.5071 183.372 35.2566 183.372 36.1707C183.372 37.1578 183.08 37.9439 182.495 38.5289C181.91 39.1138 181.16 39.4063 180.246 39.4063C179.296 39.4063 178.51 39.0956 177.888 38.474C177.303 37.889 177.011 37.1212 177.011 36.1707C177.011 35.2566 177.303 34.5071 177.888 33.9221C178.51 33.3372 179.296 33.0447 180.246 33.0447Z" fill="currentColor"/>
<path d="M161.737 3.70436H166.892V38.6386H161.737V3.70436ZM156.911 12.7533H173.035V17.2503H156.911V12.7533Z" fill="currentColor"/>
<path d="M145.737 33.9221C146.797 33.9221 147.894 33.6662 149.028 33.1544C150.161 32.6425 151.112 31.9844 151.879 31.1801L155.499 34.6899C154.366 35.8965 152.885 36.9019 151.057 37.7062C149.265 38.474 147.565 38.8579 145.956 38.8579C143.434 38.8579 141.167 38.3095 139.156 37.2127C137.182 36.0793 135.628 34.5254 134.495 32.5511C133.361 30.5402 132.794 28.2917 132.794 25.8056C132.794 23.2828 133.361 21.0343 134.495 19.06C135.628 17.0857 137.182 15.5502 139.156 14.4533C141.167 13.3199 143.434 12.7532 145.956 12.7532C147.638 12.7532 149.357 13.1371 151.112 13.9049C152.866 14.6727 154.329 15.6781 155.499 16.9212L151.879 20.4311C151.112 19.6267 150.161 18.9686 149.028 18.4568C147.894 17.9449 146.797 17.689 145.737 17.689C144.238 17.689 142.904 18.0363 141.734 18.731C140.564 19.3891 139.65 20.3397 138.992 21.5828C138.333 22.7893 138.004 24.1969 138.004 25.8056C138.004 27.4143 138.333 28.8401 138.992 30.0832C139.65 31.2897 140.564 32.2403 141.734 32.935C142.904 33.593 144.238 33.9221 145.737 33.9221Z" fill="currentColor"/>
<path d="M118.972 38.8031C116.559 38.8031 114.402 38.2546 112.5 37.1578C110.636 36.0244 109.173 34.4706 108.113 32.4963C107.053 30.522 106.523 28.2917 106.523 25.8056C106.523 23.2828 107.053 21.0343 108.113 19.06C109.173 17.0857 110.636 15.5502 112.5 14.4533C114.402 13.3199 116.559 12.7532 118.972 12.7532C121.348 12.7532 123.323 13.2468 124.895 14.234C126.467 15.2211 127.6 16.2448 128.295 17.3051C128.99 18.3288 129.447 19.1514 129.666 19.773C130.287 21.2354 130.635 22.6979 130.708 24.1603C130.818 25.5862 130.818 26.7562 130.708 27.6702V27.8896H111.733C111.952 29.1326 112.409 30.2477 113.104 31.2349C113.798 32.2221 114.658 32.9898 115.681 33.5383C116.705 34.0501 117.802 34.306 118.972 34.306C120.398 34.306 121.586 34.0867 122.536 33.6479C123.524 33.2092 124.255 32.7522 124.73 32.2769C125.205 31.765 125.589 31.2715 125.882 30.7962L129.995 32.7705C129.264 34.4157 127.948 35.8416 126.046 37.0481C124.145 38.2181 121.787 38.8031 118.972 38.8031Z" fill="currentColor"/>
<path d="M97.4796 24.0506C97.4796 22.0032 96.9495 20.3762 95.8892 19.1697C94.8289 17.9266 93.403 17.3051 91.6115 17.3051C90.3685 17.3051 89.2351 17.6159 88.2113 18.2374C87.2242 18.8224 86.4381 19.645 85.8531 20.7053C85.3047 21.729 85.0305 22.8441 85.0305 24.0506V38.6385H79.8206V12.7532H85.0305V17.3051L84.4821 17.1954C85.2865 15.9158 86.4016 14.8738 87.8274 14.0694C89.2533 13.2285 90.6792 12.8081 92.1051 12.8081C93.9332 12.8081 95.6515 13.2285 97.2602 14.0694C98.8689 14.8738 100.167 16.1169 101.154 17.7987C102.178 19.4439 102.69 21.4548 102.69 23.8313V38.6385H97.4796V24.0506Z" fill="currentColor"/>
<path d="M70.3778 24.0506C70.3778 22.0032 69.8477 20.3762 68.7874 19.1697C67.7271 17.9266 66.3012 17.3051 64.5097 17.3051C63.2666 17.3051 62.1333 17.6159 61.1095 18.2374C60.1224 18.8224 59.3363 19.645 58.7513 20.7053C58.2029 21.729 57.9287 22.8441 57.9287 24.0506V38.6385H52.7188V12.7532H57.9287V17.3051L57.3803 17.1954C58.1846 15.9158 59.2998 14.8738 60.7256 14.0694C62.1515 13.2285 63.5774 12.8081 65.0033 12.8081C66.8314 12.8081 68.5497 13.2285 70.1584 14.0694C71.7671 14.8738 73.065 16.1169 74.0522 17.7987C75.0759 19.4439 75.5878 21.4548 75.5878 23.8313V38.6385H70.3778V24.0506Z" fill="currentColor"/>
<path d="M36.4889 34.4157C37.9148 34.4157 39.1578 34.0684 40.2181 33.3737C41.3149 32.6425 42.1741 31.6371 42.7957 30.3574C43.4172 29.0412 43.728 27.5239 43.728 25.8056C43.728 24.1238 43.4172 22.643 42.7957 21.3634C42.1741 20.0472 41.3149 19.0418 40.2181 18.3471C39.1578 17.6159 37.9148 17.2503 36.4889 17.2503C35.063 17.2503 33.8016 17.6159 32.7048 18.3471C31.608 19.0418 30.7488 20.0472 30.1272 21.3634C29.5423 22.643 29.2498 24.1238 29.2498 25.8056C29.2498 27.5239 29.5423 29.0412 30.1272 30.3574C30.7488 31.6371 31.608 32.6425 32.7048 33.3737C33.8016 34.0684 35.063 34.4157 36.4889 34.4157ZM36.434 12.7532C38.8836 12.7532 41.0407 13.3199 42.9054 14.4533C44.77 15.5502 46.2324 17.0857 47.2927 19.06C48.353 21.0343 48.8831 23.2828 48.8831 25.8056C48.8831 28.3283 48.353 30.5951 47.2927 32.6059C46.2324 34.5802 44.77 36.1341 42.9054 37.2675C41.0407 38.3643 38.8836 38.9127 36.434 38.9127C34.0576 38.9127 31.9187 38.3643 30.0175 37.2675C28.1529 36.1341 26.6905 34.5802 25.6302 32.6059C24.5699 30.5951 24.0398 28.3283 24.0398 25.8056C24.0398 23.2828 24.5699 21.0343 25.6302 19.06C26.6905 17.0857 28.1529 15.5502 30.0175 14.4533C31.9187 13.3199 34.0576 12.7532 36.434 12.7532Z" fill="currentColor"/>
<path d="M4.48105 30.0284C5.06603 31.4177 5.9435 32.478 7.11345 33.2092C8.31997 33.9404 9.45337 34.306 10.5136 34.306C11.9761 34.306 13.146 34.0318 14.0235 33.4834C14.9375 32.935 15.3946 32.1672 15.3946 31.1801C15.3946 30.5951 15.1569 30.1015 14.6816 29.6993C14.2063 29.2606 13.6213 28.9133 12.9267 28.6573C12.2686 28.3649 11.2814 27.9992 9.96523 27.5605C8.21029 26.939 6.7844 26.3723 5.68757 25.8604C4.59073 25.312 3.60358 24.5259 2.72611 23.5022C1.88521 22.4785 1.46476 21.2172 1.46476 19.7181C1.46476 18.2557 1.86693 16.9943 2.67127 15.9341C3.51218 14.8372 4.64558 13.9963 6.07146 13.4113C7.49735 12.8264 9.06948 12.5339 10.7879 12.5339C11.9578 12.5339 13.1826 12.7715 14.4622 13.2468C15.7419 13.6856 16.8936 14.3985 17.9173 15.3856C18.941 16.3362 19.6539 17.5245 20.0561 18.9504L15.5591 20.4859C15.1935 19.2063 14.5354 18.3105 13.5848 17.7987C12.6708 17.2868 11.7384 17.0309 10.7879 17.0309C9.54477 17.0309 8.53934 17.2868 7.77155 17.7987C7.04033 18.274 6.67472 18.9138 6.67472 19.7181C6.67472 20.3031 6.89409 20.7967 7.33282 21.1989C7.77156 21.601 8.37481 21.9667 9.1426 22.2957C9.94694 22.5882 10.8975 22.9172 11.9944 23.2829C13.7859 23.9044 15.23 24.4894 16.3269 25.0378C17.4603 25.5862 18.4474 26.3723 19.2883 27.396C20.1658 28.4197 20.6045 29.7177 20.6045 31.2897C20.6045 32.7522 20.1841 34.0318 19.3432 35.1286C18.5023 36.1889 17.3506 37.0115 15.8882 37.5965C14.4622 38.1449 12.8535 38.4191 11.0621 38.4191C9.68958 38.4191 8.31997 38.1815 6.95036 37.7062C5.58075 37.2309 4.32907 36.5363 3.19567 35.6223C2.09884 34.7082 1.25794 33.5748 0.672958 32.2221L4.48105 30.0284Z" fill="currentColor"/>
</svg> 